<svg width="24" height="24" viewBox="0 0 24 24" fill="none" xmlns="http://www.w3.org/2000/svg">
<path fill-rule="evenodd" clip-rule="evenodd" d="M8.19995 1.99995C8.19995 1.55812 8.55812 1.19995 8.99995 1.19995H15C15.4418 1.19995 15.8 1.55812 15.8 1.99995C15.8 2.44178 15.4418 2.79995 15 2.79995H8.99995C8.55812 2.79995 8.19995 2.44178 8.19995 1.99995ZM3.19995 14C3.19995 9.13984 7.13984 5.19995 12 5.19995C16.8601 5.19995 20.7999 9.13984 20.7999 14C20.7999 18.8601 16.8601 22.7999 12 22.7999C7.13984 22.7999 3.19995 18.8601 3.19995 14ZM12 6.79995C8.0235 6.79995 4.79995 10.0235 4.79995 14C4.79995 17.9764 8.0235 21.2 12 21.2C15.9764 21.2 19.2 17.9764 19.2 14C19.2 10.0235 15.9764 6.79995 12 6.79995ZM12 9.19995C12.4418 9.19995 12.8 9.55812 12.8 9.99995V14C12.8 14.4418 12.4418 14.8 12 14.8C11.5581 14.8 11.2 14.4418 11.2 14V9.99995C11.2 9.55812 11.5581 9.19995 12 9.19995Z" fill="#212526"/>
</svg>
