<svg width="24" height="24" viewBox="0 0 24 24" fill="none" xmlns="http://www.w3.org/2000/svg">
<path fill-rule="evenodd" clip-rule="evenodd" d="M6.19257 6.19171C6.50499 5.87929 7.01152 5.87929 7.32394 6.19171L12.0009 10.8687L16.6778 6.19171C16.9902 5.87929 17.4967 5.87929 17.8092 6.19171C18.1216 6.50413 18.1216 7.01066 17.8092 7.32308L13.1323 12L17.8092 16.677C18.1216 16.9894 18.1216 17.4959 17.8092 17.8083C17.4967 18.1207 16.9902 18.1207 16.6778 17.8083L12.0009 13.1314L7.32394 17.8083C7.01152 18.1207 6.50498 18.1207 6.19256 17.8083C5.88015 17.4959 5.88015 16.9894 6.19257 16.6769L10.8695 12L6.19257 7.32308C5.88015 7.01066 5.88015 6.50413 6.19257 6.19171Z" fill="#212526"/>
</svg>
