<svg width="24" height="24" viewBox="0 0 24 24" fill="none" xmlns="http://www.w3.org/2000/svg">
<path fill-rule="evenodd" clip-rule="evenodd" d="M2.19995 4.99995C2.19995 4.55812 2.55812 4.19995 2.99995 4.19995H21C21.4418 4.19995 21.7999 4.55812 21.7999 4.99995C21.7999 5.44178 21.4418 5.79995 21 5.79995H2.99995C2.55812 5.79995 2.19995 5.44178 2.19995 4.99995ZM2.19995 12C2.19995 11.5581 2.55812 11.2 2.99995 11.2H21C21.4418 11.2 21.7999 11.5581 21.7999 12C21.7999 12.4418 21.4418 12.8 21 12.8H2.99995C2.55812 12.8 2.19995 12.4418 2.19995 12ZM2.19995 19C2.19995 18.5581 2.55812 18.2 2.99995 18.2H21C21.4418 18.2 21.7999 18.5581 21.7999 19C21.7999 19.4418 21.4418 19.8 21 19.8H2.99995C2.55812 19.8 2.19995 19.4418 2.19995 19Z" fill="#212526"/>
</svg>
