<svg xmlns="http://www.w3.org/2000/svg" width="84" height="24" fill="none"><g fill="#F60" fill-rule="evenodd" clip-path="url(#a)" clip-rule="evenodd"><path d="M27.978 19.887h2.365c0 1.146.881 1.891 2.504 1.891s2.396-.638 2.396-1.376c0-.584-.363-1.03-1.33-1.237l-2.527-.492c-1.715-.316-2.929-1.392-2.929-3.26 0-1.868 1.67-3.482 4.421-3.482 2.752 0 4.552 1.637 4.552 3.82h-2.318c-.047-1.053-.966-1.66-2.234-1.66s-2.025.584-2.025 1.284c0 .653.495.991 1.237 1.145l2.48.47c2.211.407 3.13 1.729 3.13 3.35 0 1.976-1.761 3.668-4.845 3.668-2.752-.008-4.807-1.407-4.877-4.12Zm16.733-7.756h2.357v.9c.564-.631 1.422-1.1 2.93-1.1 1.506 0 2.704.561 3.446 1.53.588-.7 1.6-1.53 3.633-1.53 2.55 0 4.398 1.622 4.398 4.25v7.62h-2.366v-7.104c0-1.484-.695-2.521-2.457-2.521-1.422 0-2.365.853-2.365 2.521V23.8h-2.365v-7.103c0-1.484-.696-2.521-2.458-2.521-1.422 0-2.388.853-2.388 2.521V23.8H44.71V12.13Zm28.032 0h-2.365v7.149c0 1.714-.88 2.521-2.458 2.521-1.576 0-2.457-.814-2.457-2.521v-7.15h-2.365v7.527c0 2.629 1.762 4.335 4.822 4.335 3.061 0 4.823-1.706 4.823-4.335V12.13Zm1.09 7.756h2.373c0 1.146.88 1.891 2.504 1.891 1.623 0 2.388-.63 2.388-1.368 0-.584-.364-1.03-1.33-1.238l-2.527-.492c-1.716-.315-2.93-1.391-2.93-3.259 0-1.868 1.67-3.482 4.422-3.482 2.751 0 4.552 1.637 4.552 3.82h-2.326c-.047-1.053-.966-1.66-2.234-1.66-1.267 0-2.025.584-2.025 1.284 0 .653.495.991 1.237 1.145l2.48.469c2.211.407 3.138 1.73 3.138 3.352 0 1.975-1.762 3.666-4.845 3.666-2.76-.015-4.808-1.414-4.877-4.128ZM42.64 23.792v-9.501c0-2.36-1.4-2.36-2.89-2.36h-.99v2.36h1.522v9.501h2.358ZM12.05 11.985c0-1.576-.31-3.137-.92-4.59a12.072 12.072 0 0 0-2.613-3.89A12.022 12.022 0 0 0 4.607.907 12.087 12.087 0 0 0 0 0v7.195c.634 0 1.26.123 1.847.37a4.735 4.735 0 0 1 1.561 1.037 4.787 4.787 0 0 1 1.415 3.39l7.226-.007Zm0 11.992c0-1.576-.31-3.137-.92-4.59A12.022 12.022 0 0 0 4.606 12.9c-1.461-.6-3.023-.914-4.607-.914v7.195c.634 0 1.26.123 1.847.369a4.735 4.735 0 0 1 1.561 1.038c.449.446.804.976 1.044 1.553.24.584.37 1.207.37 1.837h7.227Zm12.056-11.992c0-1.576-.31-3.137-.92-4.59A12.022 12.022 0 0 0 16.663.907C15.203.307 13.633 0 12.05 0v7.195c.634 0 1.26.123 1.847.37a4.735 4.735 0 0 1 1.561 1.037 4.787 4.787 0 0 1 1.415 3.39v11.985h7.234V11.985Z"/></g><defs><clipPath id="a"><path fill="#fff" d="M0 0h83.555v24H0z"/></clipPath></defs></svg>