<svg xmlns="http://www.w3.org/2000/svg" width="16" height="16" fill="none"><path fill="#212526" fill-rule="evenodd" d="M5.4 6a2.6 2.6 0 1 1 4.427 1.85 3.933 3.933 0 0 1 2.106 3.483V12a.6.6 0 1 1-1.2 0v-.667a2.733 2.733 0 1 0-5.466 0V12a.6.6 0 1 1-1.2 0v-.667c0-1.512.853-2.825 2.105-3.484A2.592 2.592 0 0 1 5.4 6ZM8 4.6a1.4 1.4 0 1 0 0 2.8 1.4 1.4 0 0 0 0-2.8ZM.733 8a1.933 1.933 0 1 1 1.934 1.933 1.4 1.4 0 0 0-1.4 1.4V12a.6.6 0 1 1-1.2 0v-.667c0-.875.432-1.649 1.094-2.12A1.925 1.925 0 0 1 .733 8Zm1.934-.733a.733.733 0 1 0 0 1.466.733.733 0 0 0 0-1.466ZM11.4 8a1.933 1.933 0 1 1 3.439 1.213 2.597 2.597 0 0 1 1.094 2.12V12a.6.6 0 1 1-1.2 0v-.667a1.4 1.4 0 0 0-1.4-1.4A1.933 1.933 0 0 1 11.4 8Zm1.933.733a.733.733 0 1 0 0-1.466.733.733 0 0 0 0 1.466Z" clip-rule="evenodd"/></svg>