<svg xmlns="http://www.w3.org/2000/svg" width="16" height="16" fill="none"><path fill="#212526" fill-rule="evenodd" d="M7.682 2.158a.6.6 0 0 1 .636 0l2.667 1.667a.6.6 0 0 1-.636 1.017L8.6 3.75V7a.6.6 0 0 1-1.2 0V3.75L5.651 4.841a.6.6 0 1 1-.636-1.017l2.667-1.667ZM8 9.469l-3.964 3.524 3.785-.736a.932.932 0 0 1 .357 0l3.786.736L8 9.469Zm-.62-1.054a.933.933 0 0 1 1.24 0l4.869 4.328c.71.63.134 1.795-.798 1.614L8 13.445l-4.69.912c-.933.18-1.509-.983-.799-1.614L7.38 8.415Z" clip-rule="evenodd"/></svg>