<svg xmlns="http://www.w3.org/2000/svg" width="16" height="16" fill="none"><path fill="#212526" fill-rule="evenodd" d="M5.333 8.6a4.067 4.067 0 0 0-4.066 4.067v.666a.6.6 0 0 1-1.2 0v-.666a5.267 5.267 0 1 1 10.533 0v.666a.6.6 0 0 1-1.2 0v-.666A4.067 4.067 0 0 0 5.333 8.6Z" clip-rule="evenodd"/><path fill="#212526" fill-rule="evenodd" d="M12 6.6a2.733 2.733 0 0 0-2.733 2.733.6.6 0 0 1-1.2 0 3.933 3.933 0 0 1 7.866 0v.334a.6.6 0 1 1-1.2 0v-.334A2.733 2.733 0 0 0 12 6.6ZM2.067 5.333a3.267 3.267 0 1 1 6.533 0 3.267 3.267 0 0 1-6.533 0Zm3.266-2.066a2.067 2.067 0 1 0 0 4.133 2.067 2.067 0 0 0 0-4.133Z" clip-rule="evenodd"/><path fill="#212526" fill-rule="evenodd" d="M9.4 4a2.6 2.6 0 1 1 5.2 0 2.6 2.6 0 0 1-5.2 0ZM12 2.6a1.4 1.4 0 1 0 0 2.8 1.4 1.4 0 0 0 0-2.8Z" clip-rule="evenodd"/></svg>