<svg xmlns="http://www.w3.org/2000/svg" width="16" height="16" fill="none"><path fill="#212526" fill-rule="evenodd" d="M8 3.417a4.583 4.583 0 1 0 0 9.166 4.583 4.583 0 0 0 0-9.166ZM1.917 8a6.083 6.083 0 1 1 12.166 0A6.083 6.083 0 0 1 1.917 8Z" clip-rule="evenodd"/><path fill="#212526" fill-rule="evenodd" d="M13.551 4.603c-.415-.026-1.008.04-1.748.213l-.274-1.168c.793-.186 1.515-.279 2.097-.242.533.033 1.183.193 1.47.766.267.536.051 1.109-.206 1.531-.277.453-.72.934-1.266 1.413-1.097.966-2.713 2.023-4.589 2.958-1.875.935-3.692 1.59-5.123 1.885-.711.146-1.362.211-1.89.16-.493-.049-1.08-.221-1.347-.757-.285-.572-.023-1.186.27-1.631.32-.486.826-1.005 1.449-1.525l.769.921c-.58.485-.988.917-1.216 1.263-.174.265-.191.394-.193.434.031.022.129.075.384.1.358.036.875-.005 1.532-.14C4.973 10.513 6.69 9.901 8.5 9c1.81-.903 3.333-1.905 4.332-2.785.502-.442.846-.83 1.033-1.137.134-.22.15-.33.151-.367-.032-.023-.146-.088-.465-.108Z" clip-rule="evenodd"/></svg>