<svg xmlns="http://www.w3.org/2000/svg" width="16" height="16" fill="none"><path fill="#212526" fill-rule="evenodd" d="M10.242 5.576a.6.6 0 0 1 .849 0l2 2a.6.6 0 0 1 0 .848l-2 2a.6.6 0 0 1-.849-.848l.976-.976H8a.6.6 0 0 1 0-1.2h3.218l-.976-.976a.6.6 0 0 1 0-.848Z" clip-rule="evenodd"/><path fill="#212526" fill-rule="evenodd" d="M2.733 3.333c0-1.067.866-1.933 1.934-1.933h6.666c1.068 0 1.934.866 1.934 1.933V4a.6.6 0 1 1-1.2 0v-.667a.733.733 0 0 0-.734-.733H4.667a.733.733 0 0 0-.734.733v9.334c0 .405.329.733.734.733h6.666a.733.733 0 0 0 .734-.733V12a.6.6 0 0 1 1.2 0v.667a1.933 1.933 0 0 1-1.934 1.933H4.667a1.933 1.933 0 0 1-1.934-1.933V3.333Z" clip-rule="evenodd"/></svg>