<svg xmlns="http://www.w3.org/2000/svg" width="16" height="16" fill="none"><path fill="#212526" fill-rule="evenodd" d="M4.175 5.656a.6.6 0 0 1 .836-.148L8 7.601l2.99-2.093a.6.6 0 0 1 .687.983L8.344 8.825a.6.6 0 0 1-.688 0L4.323 6.49a.6.6 0 0 1-.148-.835Z" clip-rule="evenodd"/><path fill="#212526" fill-rule="evenodd" d="M2.667 3.933a.733.733 0 0 0-.734.734v6.666c0 .405.329.734.734.734h10.666a.733.733 0 0 0 .734-.734V4.667a.733.733 0 0 0-.734-.734H2.667Zm-1.934.734c0-1.068.866-1.934 1.934-1.934h10.666c1.068 0 1.934.866 1.934 1.934v6.666a1.933 1.933 0 0 1-1.934 1.934H2.667a1.933 1.933 0 0 1-1.934-1.934V4.667Z" clip-rule="evenodd"/></svg>