<svg xmlns="http://www.w3.org/2000/svg" width="16" height="16" fill="none"><g fill="#212526" fill-rule="evenodd" clip-path="url(#a)" clip-rule="evenodd"><path d="M5.4 8a2.6 2.6 0 1 1 5.2 0 2.6 2.6 0 0 1-5.2 0ZM8 6.6a1.4 1.4 0 1 0 0 2.8 1.4 1.4 0 0 0 0-2.8Z"/><path d="M6.74 1.18a.6.6 0 0 1 .58-.447h1.303a.6.6 0 0 1 .58.448l.34 1.29 1.19.49.877-.75a.6.6 0 0 1 .814.031l1.334 1.334a.6.6 0 0 1 .033.811l-.747.884.477 1.152 1.293.329a.6.6 0 0 1 .453.581v1.318a.6.6 0 0 1-.45.581l-1.301.339-.478 1.153.753.888a.6.6 0 0 1-.034.812l-1.333 1.334a.6.6 0 0 1-.825.022l-.037-.033-.1-.09a44.992 44.992 0 0 0-.721-.624l-1.164.482-.329 1.299a.6.6 0 0 1-.581.453H7.333a.6.6 0 0 1-.581-.454l-.328-1.298-1.128-.464-.917.747a.6.6 0 0 1-.803-.04l-1.334-1.334a.6.6 0 0 1-.023-.823l.758-.85-.483-1.145-1.319-.36a.6.6 0 0 1-.442-.58V7.334a.6.6 0 0 1 .464-.584l1.28-.299.469-1.155-.745-.917a.6.6 0 0 1 .041-.802l1.334-1.334a.6.6 0 0 1 .823-.024l.853.76 1.142-.482.346-1.315Zm1.043.753L7.48 3.087a.6.6 0 0 1-.348.4L5.37 4.23a.6.6 0 0 1-.632-.104l-.713-.635-.55.55.627.773a.6.6 0 0 1 .09.605l-.72 1.771a.6.6 0 0 1-.42.358l-1.118.261v.4l1.159.316a.6.6 0 0 1 .395.346l.743 1.762a.6.6 0 0 1-.105.633l-.634.71.55.55.774-.631a.6.6 0 0 1 .607-.09l1.738.715a.6.6 0 0 1 .353.408l.288 1.139H8.2l.288-1.139a.6.6 0 0 1 .352-.407l1.767-.732a.6.6 0 0 1 .579.066 12.881 12.881 0 0 1 .789.655l.543-.544-.632-.745a.6.6 0 0 1-.096-.618l.732-1.767a.6.6 0 0 1 .403-.351l1.142-.297V7.8l-1.133-.288a.6.6 0 0 1-.407-.352l-.732-1.767a.6.6 0 0 1 .097-.617l.627-.742-.551-.55-.735.627a.6.6 0 0 1-.618.1L8.81 3.467a.6.6 0 0 1-.352-.402l-.297-1.133h-.378Z"/></g><defs><clipPath id="a"><path fill="#fff" d="M0 0h16v16H0z"/></clipPath></defs></svg>