<svg xmlns="http://www.w3.org/2000/svg" width="16" height="16" fill="none"><path fill="#212526" fill-rule="evenodd" d="M9.804.78a.6.6 0 0 1 .323.784L9.434 3.23a.6.6 0 1 1-1.108-.46l.693-1.667a.6.6 0 0 1 .785-.324Zm2.438.004a.6.6 0 0 1 .307.792L10.296 6.68a4.6 4.6 0 1 1-4.872.176L2.796 1.601a.6.6 0 0 1 1.073-.537l2.626 5.253a4.574 4.574 0 0 1 1.047-.229L5.35 1.596a.6.6 0 0 1 1.078-.526l2.482 5.087c.093.018.185.04.275.064l2.265-5.13a.6.6 0 0 1 .791-.307Zm-3.815 6.51h.01a3.4 3.4 0 1 1-.01 0Z" clip-rule="evenodd"/></svg>