<svg xmlns="http://www.w3.org/2000/svg" width="16" height="16" fill="none"><path fill="#212526" fill-rule="evenodd" d="M4 2.6a.733.733 0 0 0-.733.733v9.334a.6.6 0 1 1-1.2 0V3.333C2.067 2.266 2.932 1.4 4 1.4h8.933a1 1 0 0 1 1 1v8.743a.6.6 0 1 1-1.2 0V2.6H4Z" clip-rule="evenodd"/><path fill="#212526" fill-rule="evenodd" d="M3.4 11.333a.6.6 0 0 1 .6-.6h9.333a.6.6 0 1 1 0 1.2H4a.6.6 0 0 1-.6-.6ZM3.4 14a.6.6 0 0 1 .6-.6h9.333a.6.6 0 0 1 0 1.2H4a.6.6 0 0 1-.6-.6Z" clip-rule="evenodd"/><path fill="#212526" fill-rule="evenodd" d="M4 11.933A.733.733 0 1 0 4 13.4a.6.6 0 0 1 0 1.2 1.933 1.933 0 1 1 0-3.867.6.6 0 1 1 0 1.2ZM5.4 4.667a.6.6 0 0 1 .6-.6h4a.6.6 0 1 1 0 1.2H6a.6.6 0 0 1-.6-.6Z" clip-rule="evenodd"/></svg>