<svg xmlns="http://www.w3.org/2000/svg" width="16" height="16" fill="none"><path fill="#212526" fill-rule="evenodd" d="M7.333.733a.6.6 0 0 1 .6.6v2a1.4 1.4 0 0 0 1.4 1.4H10c1.493 0 2.6.787 2.6 1.934a.6.6 0 1 1-1.2 0c0-.187-.227-.734-1.4-.734h-.667a2.6 2.6 0 0 1-2.6-2.6v-2a.6.6 0 0 1 .6-.6ZM11.4 8a.6.6 0 0 1 .6-.6h2a.6.6 0 0 1 .6.6v6a.6.6 0 0 1-.6.6H2a.6.6 0 0 1-.6-.6v-2.667a.6.6 0 0 1 .21-.455l2.333-2a.6.6 0 0 1 .708-.054L7 10.292l2.349-1.468a.6.6 0 0 1 .666.021l1.385.989V8Zm0 3.309-1.756-1.254-2.326 1.454a.6.6 0 0 1-.636 0l-2.293-1.433L2.6 11.609v1.79h8.8v-2.09Zm1.2 2.09h.8V8.6h-.8v4.8ZM14 .733a.6.6 0 0 1 .6.6c0 .604-.253 1.064-.638 1.377a2.19 2.19 0 0 1-.546.32c.67.693 1.184 1.828 1.184 3.637a.6.6 0 1 1-1.2 0c0-1.854-.609-2.657-1.093-3.02a1.971 1.971 0 0 0-.86-.368 5.5 5.5 0 0 1-.146-.012l-.028-.003-.01-.001h-.003s-.001-.001.073-.596l.001-.6H11.355a1.467 1.467 0 0 1 .157.01l.06.008a3.98 3.98 0 0 0 .985-.05c.286-.053.508-.142.648-.256.115-.093.195-.216.195-.446a.6.6 0 0 1 .6-.6Zm-2.593 1.338Zm-.074.596.001-.6a.6.6 0 0 0-.074 1.195l.073-.595Z" clip-rule="evenodd"/></svg>