<svg xmlns="http://www.w3.org/2000/svg" width="16" height="16" fill="none"><g fill="#212526" fill-rule="evenodd" clip-path="url(#a)" clip-rule="evenodd"><path d="M5.933 5.933v4.134h4.134V5.933H5.933Zm-1.2-.2a1 1 0 0 1 1-1h4.534a1 1 0 0 1 1 1v4.534a1 1 0 0 1-1 1H5.733a1 1 0 0 1-1-1V5.733Z"/><path d="M3.267 3.267v9.466h9.466V3.267H3.267Zm-1.2-.2a1 1 0 0 1 1-1h9.866a1 1 0 0 1 1 1v9.866a1 1 0 0 1-1 1H3.067a1 1 0 0 1-1-1V3.067Z"/><path d="M11.333.733a.6.6 0 0 1 .6.6v1.334a.6.6 0 0 1-1.2 0V1.333a.6.6 0 0 1 .6-.6ZM8 .733a.6.6 0 0 1 .6.6v1.334a.6.6 0 0 1-1.2 0V1.333a.6.6 0 0 1 .6-.6ZM4.667.733a.6.6 0 0 1 .6.6v1.334a.6.6 0 0 1-1.2 0V1.333a.6.6 0 0 1 .6-.6ZM4.667 12.733a.6.6 0 0 1 .6.6v1.334a.6.6 0 1 1-1.2 0v-1.334a.6.6 0 0 1 .6-.6ZM8 12.733a.6.6 0 0 1 .6.6v1.334a.6.6 0 1 1-1.2 0v-1.334a.6.6 0 0 1 .6-.6ZM11.333 12.733a.6.6 0 0 1 .6.6v1.334a.6.6 0 0 1-1.2 0v-1.334a.6.6 0 0 1 .6-.6ZM12.733 11.333a.6.6 0 0 1 .6-.6h1.334a.6.6 0 1 1 0 1.2h-1.334a.6.6 0 0 1-.6-.6ZM12.733 8a.6.6 0 0 1 .6-.6h1.334a.6.6 0 1 1 0 1.2h-1.334a.6.6 0 0 1-.6-.6ZM12.733 4.667a.6.6 0 0 1 .6-.6h1.334a.6.6 0 1 1 0 1.2h-1.334a.6.6 0 0 1-.6-.6ZM.733 11.333a.6.6 0 0 1 .6-.6h1.334a.6.6 0 1 1 0 1.2H1.333a.6.6 0 0 1-.6-.6ZM.733 8a.6.6 0 0 1 .6-.6h1.334a.6.6 0 0 1 0 1.2H1.333a.6.6 0 0 1-.6-.6ZM.733 4.667a.6.6 0 0 1 .6-.6h1.334a.6.6 0 0 1 0 1.2H1.333a.6.6 0 0 1-.6-.6Z"/></g><defs><clipPath id="a"><path fill="#fff" d="M0 0h16v16H0z"/></clipPath></defs></svg>